<svg width="168" height="46" viewBox="0 0 168 46" fill="none" xmlns="http://www.w3.org/2000/svg">
<g clip-path="url(#clip0_198_1129)" filter="url(#filter0_d_198_1129)">
<path d="M51.7047 11.3711H55.1829L60.9462 26.629H57.4298L56.2619 23.2327H50.4987L49.2927 26.629H45.8906L51.7047 11.3711ZM55.3733 20.7296L53.4311 15.1321H53.393L51.3873 20.7296H55.3733Z" fill="#66B463"/>
<path d="M61.5039 15.585H69.9203V17.8743H64.5759V26.6416H61.5039V15.585Z" fill="#66B463"/>
<path d="M70.6094 15.5851H73.5164V16.9939H73.5545C73.9226 16.3901 74.405 15.9624 74.9762 15.6857C75.5475 15.4216 76.1822 15.2832 76.8804 15.2832C77.7563 15.2832 78.518 15.4467 79.14 15.7738C79.7747 16.1008 80.2952 16.5411 80.7141 17.0819C81.133 17.6228 81.4377 18.2518 81.6408 18.9687C81.8439 19.6857 81.9454 20.4404 81.9454 21.2203C81.9454 21.9625 81.8439 22.6794 81.6408 23.3587C81.4377 24.0379 81.133 24.6543 80.7268 25.17C80.3206 25.6983 79.8001 26.1134 79.1908 26.4279C78.5814 26.7423 77.8706 26.8933 77.0454 26.8933C76.3599 26.8933 75.7252 26.7549 75.1413 26.4782C74.5573 26.2014 74.0749 25.7863 73.7068 25.2455H73.6687V30.4782H70.6094V15.5851ZM76.233 24.6417C76.7408 24.6417 77.1597 24.5411 77.4897 24.3398C77.8325 24.1386 78.0991 23.8744 78.3149 23.5599C78.518 23.2329 78.6703 22.8681 78.7592 22.453C78.848 22.0379 78.8861 21.5977 78.8861 21.1448C78.8861 20.7046 78.8353 20.2643 78.7465 19.8367C78.6576 19.409 78.4926 19.0316 78.2768 18.692C78.061 18.3524 77.7817 18.0882 77.4516 17.8744C77.1089 17.6731 76.7027 17.5599 76.2076 17.5599C75.6998 17.5599 75.2809 17.6606 74.9508 17.8744C74.6208 18.0882 74.3415 18.3524 74.1257 18.6794C73.9226 19.0065 73.7703 19.3838 73.6814 19.8241C73.5926 20.2643 73.5545 20.692 73.5545 21.1323C73.5545 21.5851 73.6052 22.0253 73.6941 22.4404C73.783 22.8555 73.9353 23.2329 74.1511 23.5474C74.3542 23.8618 74.6335 24.126 74.9762 24.3272C75.319 24.5411 75.7379 24.6417 76.233 24.6417Z" fill="#66B463"/>
<path d="M88.6343 26.906C87.7584 26.906 86.9714 26.7676 86.2605 26.5034C85.5496 26.2393 84.953 25.8494 84.4452 25.3336C83.9374 24.8305 83.5566 24.2141 83.2773 23.5097C82.998 22.7928 82.8711 22.0003 82.8711 21.1198C82.8711 20.2393 83.0107 19.4343 83.2773 18.7173C83.5439 18.0003 83.9374 17.3839 84.4452 16.8808C84.953 16.3777 85.5496 15.9877 86.2605 15.711C86.9714 15.4343 87.7584 15.2959 88.6343 15.2959C89.5103 15.2959 90.31 15.4343 91.0209 15.711C91.7318 15.9877 92.3411 16.3777 92.8489 16.8808C93.3567 17.3839 93.7375 18.0003 94.0168 18.7173C94.2834 19.4343 94.423 20.2393 94.423 21.1198C94.423 22.0003 94.2834 22.8053 94.0168 23.5097C93.7375 24.2267 93.3567 24.8305 92.8489 25.3336C92.3411 25.8368 91.7318 26.2267 91.0209 26.5034C90.31 26.7676 89.5103 26.906 88.6343 26.906ZM88.6343 24.6418C89.1548 24.6418 89.5864 24.5412 89.9419 24.3399C90.2973 24.1387 90.5766 23.8745 90.7797 23.5349C90.9828 23.1953 91.1351 22.8179 91.224 22.4028C91.3129 21.9877 91.3509 21.5475 91.3509 21.1072C91.3509 20.667 91.3129 20.2267 91.224 19.799C91.1351 19.3714 90.9955 18.994 90.7797 18.667C90.5766 18.3399 90.2846 18.0758 89.9419 17.8619C89.5991 17.6481 89.1548 17.5475 88.6343 17.5475C88.1139 17.5475 87.6823 17.6481 87.3395 17.8619C86.9968 18.0632 86.7175 18.3399 86.5144 18.667C86.3113 18.994 86.1589 19.3714 86.0701 19.799C85.9812 20.2267 85.9431 20.667 85.9431 21.1072C85.9431 21.5475 85.9812 21.9751 86.0701 22.4028C86.1589 22.8179 86.2986 23.1953 86.5144 23.5349C86.7175 23.8745 86.9968 24.1387 87.3395 24.3399C87.6823 24.5412 88.1139 24.6418 88.6343 24.6418Z" fill="#66B463"/>
<path d="M103.066 26.9682C101.873 26.9682 100.806 26.767 99.8796 26.3645C98.9402 25.9619 98.1531 25.3959 97.5057 24.6915C96.8583 23.9745 96.3632 23.1443 96.0205 22.1758C95.6777 21.2198 95.5 20.1758 95.5 19.0689C95.5 17.9494 95.6777 16.8928 96.0205 15.9116C96.3632 14.9305 96.8583 14.0752 97.5057 13.3456C98.1531 12.616 98.9402 12.05 99.8796 11.6349C100.819 11.2198 101.873 11.0186 103.066 11.0186C103.904 11.0186 104.703 11.1443 105.465 11.3833C106.227 11.6223 106.912 11.9745 107.509 12.4399C108.106 12.9053 108.601 13.4714 108.981 14.1632C109.375 14.8425 109.616 15.6349 109.718 16.5154H106.443C106.379 16.1255 106.252 15.7733 106.049 15.4588C105.846 15.1318 105.592 14.855 105.3 14.616C104.995 14.377 104.653 14.1884 104.272 14.05C103.891 13.9116 103.497 13.8487 103.079 13.8487C102.317 13.8487 101.669 13.9997 101.136 14.289C100.603 14.5783 100.172 14.9682 99.8415 15.4588C99.5114 15.9494 99.2702 16.5154 99.1179 17.1318C98.9656 17.7607 98.8894 18.4022 98.8894 19.0814C98.8894 19.723 98.9656 20.3519 99.1179 20.9557C99.2702 21.5594 99.5114 22.1003 99.8415 22.5909C100.172 23.0814 100.603 23.4588 101.136 23.7607C101.669 24.05 102.317 24.2009 103.079 24.2009C104.119 24.2009 104.919 23.8865 105.503 23.2575C106.087 22.6286 106.443 21.7984 106.569 20.7796H109.845C109.756 21.7481 109.54 22.616 109.172 23.3708C108.816 24.1381 108.334 24.7796 107.75 25.3204C107.166 25.8613 106.468 26.2764 105.681 26.5657C104.881 26.8299 104.018 26.9682 103.066 26.9682Z" fill="black"/>
<path d="M117.791 25.8868H117.727C117.511 26.1635 117.194 26.4025 116.762 26.6038C116.331 26.8051 115.886 26.9183 115.429 26.9183C114.592 26.9183 113.893 26.7547 113.309 26.4151C112.738 26.0755 112.268 25.6352 111.913 25.0944C111.558 24.5535 111.304 23.912 111.151 23.195C110.999 22.478 110.91 21.7359 110.91 20.956C110.91 20.0881 111.012 19.3082 111.228 18.6038C111.431 17.912 111.723 17.3082 112.103 16.8176C112.472 16.3271 112.929 15.9497 113.474 15.6856C114.008 15.4214 114.617 15.2956 115.277 15.2956C115.924 15.2956 116.458 15.4088 116.877 15.6352C117.295 15.8617 117.575 16.1258 117.74 16.4277H117.803V11.3711H120.863V16.4151H120.926C121.078 16.1132 121.37 15.8491 121.789 15.6227C122.208 15.3963 122.741 15.283 123.389 15.283C124.049 15.283 124.645 15.4088 125.191 15.673C125.725 15.9371 126.182 16.3145 126.562 16.8051C126.93 17.2956 127.222 17.8868 127.438 18.5912C127.641 19.2956 127.756 20.0755 127.756 20.9434C127.756 21.7107 127.679 22.4529 127.514 23.1824C127.362 23.8994 127.095 24.5409 126.753 25.0818C126.397 25.6352 125.94 26.0755 125.356 26.4025C124.785 26.7422 124.074 26.9057 123.236 26.9057C122.779 26.9057 122.335 26.8051 121.903 26.5912C121.472 26.39 121.155 26.151 120.939 25.8742H120.875V30.4906H117.816V25.8868H117.791ZM116.14 24.6415C116.597 24.6415 116.978 24.5409 117.27 24.3271C117.562 24.1132 117.74 23.8617 117.803 23.5849V18.7422C117.664 18.3019 117.41 18 117.067 17.8239C116.724 17.6478 116.381 17.5724 116.051 17.5724C115.315 17.5724 114.795 17.8742 114.465 18.4906C114.147 19.1069 113.982 19.9497 113.982 21.0189C113.982 21.4717 114.02 21.9246 114.084 22.3522C114.147 22.7925 114.261 23.1698 114.426 23.522C114.592 23.8617 114.807 24.1384 115.087 24.3396C115.353 24.5409 115.709 24.6415 116.14 24.6415ZM122.526 24.6415C122.957 24.6415 123.313 24.5409 123.579 24.3271C123.846 24.1258 124.074 23.8491 124.239 23.5095C124.404 23.1698 124.519 22.7799 124.582 22.3396C124.645 21.8994 124.684 21.4591 124.684 21.0063C124.684 19.9371 124.519 19.0944 124.201 18.478C123.884 17.8617 123.351 17.5598 122.614 17.5598C122.284 17.5598 121.942 17.6478 121.599 17.8113C121.256 17.9749 121.015 18.2893 120.863 18.7296V23.5598C120.926 23.8491 121.091 24.0881 121.396 24.3019C121.7 24.5157 122.056 24.6415 122.526 24.6415Z" fill="black"/>
<path d="M134.32 26.9058C133.444 26.9058 132.657 26.7675 131.946 26.4908C131.248 26.214 130.639 25.8115 130.156 25.3084C129.661 24.7926 129.293 24.1889 129.026 23.4719C128.76 22.7549 128.633 21.975 128.633 21.1197C128.633 20.2895 128.772 19.5222 129.039 18.8178C129.318 18.1008 129.699 17.4845 130.207 16.9687C130.715 16.453 131.311 16.0379 132.01 15.736C132.708 15.4341 133.482 15.2832 134.333 15.2832C135.221 15.2832 136.008 15.4467 136.694 15.7738C137.379 16.1008 137.95 16.5411 138.395 17.0819C138.852 17.6354 139.195 18.2643 139.423 18.9939C139.652 19.7235 139.766 20.4782 139.766 21.258C139.766 21.3587 139.766 21.4593 139.766 21.5474C139.766 21.6354 139.753 21.736 139.74 21.8367H131.692C131.73 22.8178 131.984 23.5348 132.454 23.975C132.911 24.4153 133.571 24.6417 134.434 24.6417C135.056 24.6417 135.589 24.4908 136.034 24.1763C136.478 23.8618 136.757 23.5474 136.859 23.2077H139.55C139.118 24.5285 138.458 25.4845 137.57 26.0505C136.668 26.6165 135.589 26.9058 134.32 26.9058ZM136.668 19.9121C136.529 19.1448 136.275 18.5536 135.907 18.1637C135.539 17.7612 134.98 17.5599 134.231 17.5599C133.723 17.5599 133.317 17.648 133 17.8115C132.682 17.975 132.428 18.1763 132.238 18.4153C132.048 18.6543 131.908 18.9184 131.832 19.1826C131.756 19.4593 131.705 19.6983 131.692 19.9121H136.668Z" fill="black"/>
<path d="M140.985 15.5851H143.892V16.9939H143.93C144.311 16.3901 144.781 15.9624 145.352 15.6857C145.923 15.4216 146.558 15.2832 147.244 15.2832C148.12 15.2832 148.881 15.4467 149.503 15.7738C150.138 16.1008 150.658 16.5411 151.077 17.0819C151.496 17.6228 151.801 18.2518 152.004 18.9687C152.207 19.6857 152.309 20.4404 152.309 21.2203C152.309 21.9625 152.207 22.6794 152.004 23.3587C151.801 24.0379 151.496 24.6543 151.09 25.17C150.684 25.6983 150.163 26.1134 149.554 26.4279C148.945 26.7423 148.234 26.8933 147.409 26.8933C146.723 26.8933 146.076 26.7549 145.505 26.4782C144.921 26.2014 144.438 25.7863 144.07 25.2455H144.032V30.4782H140.973V15.5851H140.985ZM146.609 24.6417C147.117 24.6417 147.536 24.5411 147.866 24.3398C148.208 24.1386 148.475 23.8744 148.691 23.5599C148.894 23.2329 149.046 22.8681 149.135 22.453C149.224 22.0379 149.262 21.5977 149.262 21.1448C149.262 20.7046 149.211 20.2643 149.122 19.8367C149.034 19.409 148.869 19.0316 148.653 18.692C148.437 18.3524 148.158 18.0882 147.828 17.8744C147.485 17.6731 147.079 17.5599 146.584 17.5599C146.076 17.5599 145.657 17.6606 145.327 17.8744C144.984 18.0757 144.717 18.3524 144.502 18.6794C144.299 19.0065 144.146 19.3838 144.057 19.8241C143.969 20.2643 143.93 20.692 143.93 21.1323C143.93 21.5851 143.981 22.0253 144.07 22.4404C144.159 22.8555 144.311 23.2329 144.527 23.5474C144.73 23.8618 145.009 24.126 145.352 24.3272C145.695 24.5411 146.114 24.6417 146.609 24.6417Z" fill="black"/>
<path d="M156.928 26.906C156.395 26.906 155.9 26.8431 155.443 26.7173C154.986 26.5915 154.58 26.3902 154.237 26.1135C153.894 25.8368 153.628 25.4972 153.425 25.0821C153.234 24.667 153.133 24.1764 153.133 23.6104C153.133 22.9814 153.247 22.4657 153.463 22.0632C153.691 21.6607 153.971 21.3336 154.326 21.0946C154.682 20.8556 155.075 20.667 155.532 20.5538C155.989 20.428 156.446 20.3399 156.903 20.2645C157.36 20.189 157.817 20.1387 158.261 20.0884C158.706 20.0506 159.099 19.9877 159.442 19.8997C159.785 19.8116 160.064 19.6858 160.267 19.5223C160.47 19.3588 160.559 19.1198 160.546 18.8053C160.546 18.4909 160.496 18.2393 160.381 18.038C160.267 17.8368 160.127 17.6858 159.95 17.5726C159.772 17.472 159.556 17.3965 159.328 17.3588C159.086 17.3211 158.833 17.3085 158.566 17.3085C157.957 17.3085 157.487 17.4343 157.144 17.6984C156.801 17.95 156.598 18.3777 156.535 18.9814H153.476C153.514 18.2896 153.704 17.6984 154.009 17.2204C154.326 16.7424 154.732 16.3651 155.215 16.0758C155.71 15.7865 156.256 15.5852 156.852 15.472C157.462 15.3462 158.071 15.2959 158.706 15.2959C159.264 15.2959 159.835 15.3336 160.407 15.4091C160.978 15.4846 161.511 15.6355 161.981 15.8745C162.45 16.1009 162.844 16.428 163.149 16.8305C163.453 17.2456 163.606 17.7739 163.606 18.428V24.1764C163.606 24.6795 163.631 25.1575 163.695 25.6104C163.758 26.0632 163.847 26.4028 163.999 26.6418H160.889C160.826 26.4657 160.788 26.3022 160.749 26.1135C160.711 25.9374 160.686 25.7487 160.673 25.5726C160.178 26.0758 159.607 26.4154 158.947 26.6167C158.287 26.8053 157.614 26.906 156.928 26.906ZM158.071 24.8934C158.68 24.8934 159.137 24.7928 159.467 24.5915C159.797 24.3902 160.039 24.1512 160.204 23.8745C160.356 23.5978 160.457 23.3211 160.496 23.0317C160.534 22.7424 160.546 22.516 160.546 22.3525V21.2204C160.419 21.3336 160.254 21.4217 160.077 21.4846C159.886 21.5475 159.683 21.5978 159.455 21.6481C159.226 21.6858 158.985 21.7236 158.744 21.7487C158.503 21.7739 158.249 21.8116 158.007 21.8619C157.766 21.8997 157.538 21.9626 157.322 22.038C157.106 22.1135 156.916 22.2016 156.751 22.3273C156.586 22.4531 156.446 22.6041 156.357 22.7928C156.256 22.9814 156.205 23.2078 156.205 23.4972C156.205 23.7865 156.256 24.0129 156.357 24.189C156.459 24.3651 156.598 24.5034 156.763 24.6167C156.941 24.7173 157.144 24.7928 157.373 24.8431C157.589 24.8808 157.817 24.8934 158.071 24.8934Z" fill="black"/>
<path d="M6.46271 18.7673C6.46271 9.76101 13.8508 2.44025 22.94 2.44025C32.0292 2.44025 39.4173 9.76101 39.4173 18.7673C39.4173 21.2579 38.8461 23.6352 37.8305 25.7484L39.9759 26.956C41.1945 24.478 41.88 21.6981 41.88 18.7673C41.8673 8.4151 33.3748 0 22.94 0C12.5052 0 4 8.4151 4 18.7673C4 20.1635 4.16503 21.5346 4.457 22.8428L6.75468 21.8239C6.56427 20.8302 6.46271 19.8113 6.46271 18.7673Z" fill="#66B463"/>
<path d="M30.9252 19.3203C30.7982 19.3077 30.4936 19.27 30.1508 19.1819C29.8462 19.1065 29.6304 19.0184 29.4272 18.9304C28.6529 18.6285 28.2721 18.4775 28.0816 18.4272C28.0816 18.4272 27.4342 18.2511 26.4441 18.4398C25.2381 18.6788 23.7021 20.2134 22.8008 22.6033C23.0801 22.2637 23.3339 22.0121 23.5117 21.8486C24.8446 20.641 26.3552 20.3014 26.863 20.2888C27.0661 20.2888 27.4723 20.2511 27.4723 20.2763C27.4723 20.2888 27.1803 20.314 26.8757 20.3769C26.1394 20.5153 25.5809 20.8171 25.1746 21.0436C24.9588 21.1568 24.7176 21.2951 24.4257 21.5215C24.1718 21.7102 23.9941 21.8863 23.829 22.0499C23.5878 22.2763 23.4101 22.4901 23.2705 22.6536C23.4228 22.6033 23.6767 22.5278 23.9814 22.4649C26.3679 21.9618 27.777 23.0058 29.0845 22.8549C30.1381 22.7291 31.5091 21.9115 32.9055 18.8675C32.6262 18.9932 31.763 19.4083 30.9252 19.3203Z" fill="#66B463"/>
<path fill-rule="evenodd" clip-rule="evenodd" d="M19.0951 16.6538C18.9174 16.138 18.7396 15.3707 18.9174 14.5028C19.057 13.7733 19.4378 13.0311 21.4309 11.2575C23.6524 9.28269 25.4296 8.21351 26.2674 6.71666C26.3309 6.60345 27.0164 5.38332 26.9275 5.33301C26.9148 5.33301 26.9021 5.33301 26.9021 5.33301C27.156 5.96194 27.5876 7.08144 28.1335 8.50282C28.6159 9.76068 28.8571 10.4022 29.0348 11.3204C29.2125 12.2512 29.3395 12.855 29.149 13.5972C28.8825 14.6663 28.197 15.3456 27.6003 15.9242C26.1912 17.2701 25.3534 17.2198 24.0459 18.4399C23.2842 19.1443 22.8526 19.899 22.6241 20.3645C22.4464 19.5468 22.2941 18.3141 22.5733 16.8676C22.6368 16.5406 22.8653 15.4336 23.4366 14.4148C23.7285 13.899 24.1094 13.4085 24.1348 13.3707C24.3506 13.094 24.541 12.8802 24.6806 12.7167C24.1221 13.1443 23.2588 13.9242 22.6241 15.1695C22.091 16.2261 21.9767 17.1443 21.8625 18.2009C21.7482 19.1946 21.6847 20.6915 22.0275 22.528C21.0373 20.5657 20.0726 18.616 19.0951 16.6538Z" fill="#66B463"/>
<path d="M30.3146 31.5214C28.9309 31.3956 26.8744 30.8547 24.399 30.1881C23.8912 30.0497 23.4215 29.9239 22.863 29.7227C21.8728 29.383 21.0858 29.0183 20.3114 28.6661C19.8798 28.4774 19.4736 28.2761 19.0293 28.1C17.9883 27.7352 16.922 27.3956 15.8176 27.144C15.2717 27.0183 14.6497 26.9176 13.9515 26.8296C11.3873 26.578 8.49295 26.8925 5.53516 27.6346C5.92868 28.5025 6.52532 29.4962 7.27429 30.4774C7.82015 31.1944 8.34062 31.7981 8.8357 32.3516C11.2603 31.2824 13.1772 31.3956 14.1419 31.4837C15.8303 31.6346 17.2902 32.2132 18.2295 32.5906C19.334 33.0308 19.499 33.2195 21.0096 33.8484C21.1746 33.9113 22.8249 34.6032 24.107 34.9302C26.3032 35.4837 28.9436 35.0434 29.261 34.9931C31.4063 34.6157 32.8916 33.8233 33.2089 33.6472C35.7351 32.2761 37.1823 30.3264 37.8931 29.1818C34.2118 31.6346 31.4952 31.6346 30.3146 31.5214Z" fill="#66B463"/>
<path d="M18.1017 25.6976C18.8507 25.9366 19.4854 26.1882 20.0694 26.4398C20.5264 26.6159 20.996 26.8046 21.4277 27.031C21.4784 27.0561 21.5546 27.0939 21.6435 27.1442C22.5701 27.5593 23.5222 27.9492 24.8805 28.3014C27.229 28.9052 29.679 29.0939 32.2306 28.88C30.2756 27.3957 27.1274 25.4209 22.824 24.3266C15.4867 22.4649 9.39338 24.3643 7.01953 25.2448C8.08586 25.0184 9.54571 24.8046 11.2848 24.8046C13.6968 24.7417 15.9818 25.031 18.1017 25.6976Z" fill="#66B463"/>
<path d="M16.8097 18.8047C17.2921 19.006 18.2188 19.4714 18.955 20.3016C19.1201 20.4902 19.4247 20.8424 19.6786 21.3833C19.7675 21.5846 19.8437 21.7733 19.8944 21.9368C20.1229 21.4965 20.4657 20.6538 20.2118 19.7229C20.0848 19.245 19.831 18.8676 19.7294 18.7292C19.3105 18.138 18.8154 17.811 18.5361 17.6475C16.5812 16.4525 14.6517 16.2135 13.4838 15.245C13.3822 15.1695 12.5698 14.4902 12.5698 14.4902C12.0874 17.4462 12.8237 18.7041 13.4457 19.3078C13.9662 19.7984 14.4866 19.9116 15.8068 20.4148C17.5079 21.0689 18.8408 21.7104 19.7421 22.1883C19.4882 21.5594 19.0312 20.6286 18.1426 19.7733C17.6729 19.3456 17.2032 19.0185 16.8097 18.8047Z" fill="#66B463"/>
<path fill-rule="evenodd" clip-rule="evenodd" d="M16.8979 33.7107C16.0347 33.3963 14.9811 33.0189 13.5593 32.9434C12.0233 32.868 10.7792 33.1698 9.99219 33.4214C14.5114 37.3208 20.3254 38.8931 26.2029 37.4717C23.7021 37.3963 21.9503 36.2642 20.7951 35.6856C19.4876 35.0566 18.8148 34.4025 16.8979 33.7107Z" fill="#66B463"/>
</g>
<defs>
<filter id="filter0_d_198_1129" x="0" y="0" width="168" height="46" filterUnits="userSpaceOnUse" color-interpolation-filters="sRGB">
<feFlood flood-opacity="0" result="BackgroundImageFix"/>
<feColorMatrix in="SourceAlpha" type="matrix" values="0 0 0 0 0 0 0 0 0 0 0 0 0 0 0 0 0 0 127 0" result="hardAlpha"/>
<feOffset dy="4"/>
<feGaussianBlur stdDeviation="2"/>
<feComposite in2="hardAlpha" operator="out"/>
<feColorMatrix type="matrix" values="0 0 0 0 0 0 0 0 0 0 0 0 0 0 0 0 0 0 0.25 0"/>
<feBlend mode="normal" in2="BackgroundImageFix" result="effect1_dropShadow_198_1129"/>
<feBlend mode="normal" in="SourceGraphic" in2="effect1_dropShadow_198_1129" result="shape"/>
</filter>
<clipPath id="clip0_198_1129">
<rect width="160" height="38" fill="white" transform="translate(4)"/>
</clipPath>
</defs>
</svg>
