<svg width="113" height="28" viewBox="0 0 113 28" fill="none" xmlns="http://www.w3.org/2000/svg">
<g clip-path="url(#clip0_206_1640)">
<path d="M33.6921 8.37891H36.1486L40.2189 19.6215H37.7355L36.9107 17.1191H32.8404L31.9887 19.6215H29.5859L33.6921 8.37891ZM36.2831 15.2746L34.9114 11.1502H34.8845L33.468 15.2746H36.2831Z" fill="#66B463"/>
<path d="M40.6133 11.4834H46.5574V13.1703H42.7829V19.6304H40.6133V11.4834Z" fill="#66B463"/>
<path d="M47.043 11.4832H49.096V12.5213H49.1229C49.3829 12.0764 49.7236 11.7612 50.1271 11.5573C50.5305 11.3627 50.9788 11.2607 51.4719 11.2607C52.0905 11.2607 52.6284 11.3812 53.0677 11.6222C53.516 11.8632 53.8836 12.1876 54.1794 12.5861C54.4753 12.9847 54.6905 13.4481 54.8339 13.9764C54.9773 14.5047 55.0491 15.0608 55.0491 15.6355C55.0491 16.1823 54.9773 16.7106 54.8339 17.2111C54.6905 17.7116 54.4753 18.1657 54.1884 18.5457C53.9015 18.935 53.5339 19.2409 53.1036 19.4726C52.6732 19.7043 52.1712 19.8155 51.5884 19.8155C51.1043 19.8155 50.656 19.7136 50.2436 19.5097C49.8312 19.3058 49.4905 18.9999 49.2305 18.6014H49.2036V22.457H47.043V11.4832ZM51.0146 18.1565C51.3733 18.1565 51.6691 18.0823 51.9022 17.934C52.1443 17.7857 52.3326 17.5911 52.485 17.3594C52.6284 17.1184 52.736 16.8496 52.7988 16.5438C52.8615 16.2379 52.8884 15.9135 52.8884 15.5798C52.8884 15.2554 52.8525 14.9311 52.7898 14.6159C52.727 14.3008 52.6105 14.0227 52.4581 13.7725C52.3057 13.5222 52.1084 13.3276 51.8753 13.17C51.6333 13.0217 51.3464 12.9383 50.9967 12.9383C50.6381 12.9383 50.3422 13.0125 50.1091 13.17C49.876 13.3276 49.6788 13.5222 49.5264 13.7632C49.3829 14.0042 49.2754 14.2823 49.2126 14.6067C49.1498 14.9311 49.1229 15.2462 49.1229 15.5706C49.1229 15.9042 49.1588 16.2286 49.2216 16.5345C49.2843 16.8404 49.3919 17.1184 49.5443 17.3501C49.6878 17.5818 49.885 17.7765 50.1271 17.9248C50.3691 18.0823 50.665 18.1565 51.0146 18.1565Z" fill="#66B463"/>
<path d="M59.7734 19.8253C59.1548 19.8253 58.599 19.7233 58.0969 19.5287C57.5948 19.3341 57.1735 19.0467 56.8148 18.6667C56.4562 18.296 56.1873 17.8418 55.99 17.3228C55.7928 16.7945 55.7031 16.2106 55.7031 15.5618C55.7031 14.913 55.8017 14.3198 55.99 13.7915C56.1783 13.2632 56.4562 12.8091 56.8148 12.4383C57.1735 12.0676 57.5948 11.7803 58.0969 11.5764C58.599 11.3725 59.1548 11.2705 59.7734 11.2705C60.392 11.2705 60.9569 11.3725 61.4589 11.5764C61.961 11.7803 62.3913 12.0676 62.7499 12.4383C63.1086 12.8091 63.3775 13.2632 63.5748 13.7915C63.763 14.3198 63.8617 14.913 63.8617 15.5618C63.8617 16.2106 63.763 16.8038 63.5748 17.3228C63.3775 17.8511 63.1086 18.296 62.7499 18.6667C62.3913 19.0375 61.961 19.3248 61.4589 19.5287C60.9569 19.7233 60.392 19.8253 59.7734 19.8253ZM59.7734 18.157C60.141 18.157 60.4458 18.0828 60.6969 17.9345C60.9479 17.7862 61.1451 17.5916 61.2886 17.3413C61.432 17.0911 61.5396 16.813 61.6024 16.5072C61.6651 16.2013 61.692 15.8769 61.692 15.5525C61.692 15.2281 61.6651 14.9037 61.6024 14.5886C61.5396 14.2735 61.441 13.9954 61.2886 13.7545C61.1451 13.5135 60.9389 13.3188 60.6969 13.1613C60.4548 13.0037 60.141 12.9296 59.7734 12.9296C59.4058 12.9296 59.101 13.0037 58.859 13.1613C58.6169 13.3096 58.4196 13.5135 58.2762 13.7545C58.1328 13.9954 58.0252 14.2735 57.9624 14.5886C57.8997 14.9037 57.8728 15.2281 57.8728 15.5525C57.8728 15.8769 57.8997 16.1921 57.9624 16.5072C58.0252 16.813 58.1238 17.0911 58.2762 17.3413C58.4196 17.5916 58.6169 17.7862 58.859 17.9345C59.101 18.0828 59.4058 18.157 59.7734 18.157Z" fill="#66B463"/>
<path d="M69.9645 19.8715C69.1217 19.8715 68.3686 19.7232 67.7142 19.4267C67.0507 19.1301 66.4949 18.713 66.0376 18.1939C65.5804 17.6656 65.2307 17.0539 64.9887 16.3403C64.7466 15.6359 64.6211 14.8666 64.6211 14.051C64.6211 13.2261 64.7466 12.4475 64.9887 11.7246C65.2307 11.0016 65.5804 10.3714 66.0376 9.8338C66.4949 9.29623 67.0507 8.87915 67.7142 8.57329C68.3776 8.26744 69.1217 8.11914 69.9645 8.11914C70.5562 8.11914 71.121 8.21183 71.6589 8.38793C72.1969 8.56403 72.681 8.82354 73.1024 9.16648C73.5237 9.50941 73.8734 9.92649 74.1424 10.4363C74.4203 10.9368 74.5906 11.5207 74.6623 12.1695H72.3493C72.3044 11.8821 72.2148 11.6226 72.0713 11.3909C71.9279 11.1499 71.7486 10.946 71.5424 10.7699C71.3272 10.5938 71.0851 10.4548 70.8162 10.3528C70.5472 10.2509 70.2693 10.2045 69.9734 10.2045C69.4355 10.2045 68.9783 10.3158 68.6017 10.5289C68.2252 10.7421 67.9204 11.0294 67.6873 11.3909C67.4542 11.7524 67.2838 12.1695 67.1762 12.6236C67.0686 13.087 67.0149 13.5597 67.0149 14.0602C67.0149 14.5329 67.0686 14.9963 67.1762 15.4412C67.2838 15.8861 67.4542 16.2846 67.6873 16.6461C67.9204 17.0076 68.2252 17.2856 68.6017 17.5081C68.9783 17.7213 69.4355 17.8325 69.9734 17.8325C70.7086 17.8325 71.2734 17.6008 71.6858 17.1373C72.0982 16.6739 72.3493 16.0622 72.4389 15.3115H74.752C74.6892 16.0251 74.5368 16.6647 74.2768 17.2208C74.0258 17.7861 73.6851 18.2588 73.2727 18.6574C72.8603 19.0559 72.3672 19.3618 71.8113 19.575C71.2465 19.7696 70.6369 19.8715 69.9645 19.8715Z" fill="black"/>
<path d="M80.3671 19.0747H80.3222C80.1698 19.2786 79.9457 19.4547 79.6409 19.603C79.336 19.7513 79.0223 19.8347 78.6995 19.8347C78.1078 19.8347 77.6147 19.7142 77.2023 19.464C76.7988 19.2137 76.4671 18.8893 76.2161 18.4908C75.965 18.0922 75.7857 17.6196 75.6782 17.0913C75.5706 16.563 75.5078 16.0161 75.5078 15.4415C75.5078 14.8019 75.5795 14.2273 75.7319 13.7083C75.8754 13.1985 76.0816 12.7536 76.3506 12.3921C76.6106 12.0307 76.9333 11.7526 77.3188 11.558C77.6954 11.3633 78.1257 11.2707 78.5919 11.2707C79.0492 11.2707 79.4257 11.3541 79.7216 11.5209C80.0174 11.6877 80.2146 11.8824 80.3312 12.1048H80.376V8.37891H82.5367V12.0956H82.5815C82.6891 11.8731 82.8953 11.6785 83.1912 11.5116C83.487 11.3448 83.8636 11.2614 84.3208 11.2614C84.787 11.2614 85.2084 11.3541 85.5939 11.5487C85.9704 11.7434 86.2932 12.0214 86.5622 12.3829C86.8222 12.7443 87.0284 13.18 87.1808 13.699C87.3242 14.218 87.4049 14.7927 87.4049 15.4322C87.4049 15.9976 87.3511 16.5444 87.2346 17.082C87.127 17.6103 86.9387 18.083 86.6966 18.4815C86.4456 18.8893 86.1229 19.2137 85.7104 19.4547C85.307 19.705 84.8049 19.8254 84.2132 19.8254C83.8905 19.8254 83.5767 19.7513 83.2719 19.5937C82.967 19.4454 82.7429 19.2693 82.5905 19.0654H82.5457V22.467H80.385V19.0747H80.3671ZM79.2016 18.1571C79.5243 18.1571 79.7933 18.083 79.9995 17.9254C80.2057 17.7678 80.3312 17.5825 80.376 17.3786V13.8102C80.2774 13.4858 80.0981 13.2634 79.856 13.1336C79.614 13.0039 79.3719 12.9483 79.1388 12.9483C78.6188 12.9483 78.2512 13.1707 78.0181 13.6249C77.794 14.079 77.6774 14.7 77.6774 15.4878C77.6774 15.8215 77.7043 16.1551 77.7492 16.4703C77.794 16.7947 77.8747 17.0727 77.9912 17.3322C78.1078 17.5825 78.2602 17.7864 78.4574 17.9347C78.6457 18.083 78.8967 18.1571 79.2016 18.1571ZM83.7112 18.1571C84.016 18.1571 84.267 18.083 84.4553 17.9254C84.6436 17.7771 84.8049 17.5732 84.9215 17.323C85.038 17.0727 85.1187 16.7854 85.1636 16.461C85.2084 16.1366 85.2353 15.8122 85.2353 15.4785C85.2353 14.6907 85.1187 14.0697 84.8946 13.6156C84.6705 13.1614 84.2939 12.939 83.7739 12.939C83.5408 12.939 83.2988 13.0039 83.0567 13.1244C82.8146 13.2448 82.6443 13.4766 82.5367 13.801V17.36C82.5815 17.5732 82.6981 17.7493 82.9132 17.9069C83.1284 18.0644 83.3794 18.1571 83.7112 18.1571Z" fill="black"/>
<path d="M92.0399 19.8248C91.4213 19.8248 90.8655 19.7228 90.3634 19.5189C89.8703 19.315 89.44 19.0184 89.0993 18.6477C88.7496 18.2677 88.4896 17.8228 88.3014 17.2945C88.1131 16.7662 88.0234 16.1916 88.0234 15.5613C88.0234 14.9496 88.1221 14.3842 88.3103 13.8652C88.5076 13.3369 88.7765 12.8827 89.1351 12.5027C89.4938 12.1227 89.9151 11.8169 90.4082 11.5944C90.9013 11.372 91.4482 11.2607 92.0489 11.2607C92.6765 11.2607 93.2323 11.3812 93.7165 11.6222C94.2006 11.8632 94.604 12.1876 94.9178 12.5861C95.2406 12.9939 95.4827 13.4574 95.644 13.9949C95.8054 14.5325 95.8861 15.0886 95.8861 15.6633C95.8861 15.7374 95.8861 15.8116 95.8861 15.8764C95.8861 15.9413 95.8771 16.0155 95.8682 16.0896H90.1841C90.211 16.8125 90.3903 17.3408 90.722 17.6652C91.0448 17.9896 91.511 18.1565 92.1206 18.1565C92.5599 18.1565 92.9365 18.0453 93.2503 17.8135C93.5641 17.5818 93.7613 17.3501 93.833 17.0999H95.7337C95.4289 18.0731 94.9627 18.7775 94.3351 19.1945C93.6985 19.6116 92.9365 19.8248 92.0399 19.8248ZM93.6985 14.6715C93.5999 14.1062 93.4206 13.6705 93.1606 13.3832C92.9006 13.0866 92.5061 12.9383 91.9772 12.9383C91.6186 12.9383 91.3317 13.0032 91.1075 13.1237C90.8834 13.2442 90.7041 13.3925 90.5696 13.5686C90.4351 13.7447 90.3365 13.9393 90.2827 14.134C90.2289 14.3379 90.1931 14.514 90.1841 14.6715H93.6985Z" fill="black"/>
<path d="M96.7472 11.4832H98.8003V12.5213H98.8272C99.0962 12.0764 99.4279 11.7612 99.8313 11.5573C100.235 11.3627 100.683 11.2607 101.167 11.2607C101.786 11.2607 102.324 11.3812 102.763 11.6222C103.211 11.8632 103.579 12.1876 103.875 12.5861C104.171 12.9847 104.386 13.4481 104.529 13.9764C104.673 14.5047 104.744 15.0608 104.744 15.6355C104.744 16.1823 104.673 16.7106 104.529 17.2111C104.386 17.7116 104.171 18.1657 103.884 18.5457C103.597 18.935 103.229 19.2409 102.799 19.4726C102.369 19.7043 101.867 19.8155 101.284 19.8155C100.8 19.8155 100.342 19.7136 99.9389 19.5097C99.5265 19.3058 99.1858 18.9999 98.9258 18.6014H98.8989V22.457H96.7383V11.4832H96.7472ZM100.719 18.1565C101.078 18.1565 101.373 18.0823 101.607 17.934C101.849 17.7857 102.037 17.5911 102.189 17.3594C102.333 17.1184 102.44 16.8496 102.503 16.5438C102.566 16.2379 102.593 15.9135 102.593 15.5798C102.593 15.2554 102.557 14.9311 102.494 14.6159C102.431 14.3008 102.315 14.0227 102.162 13.7725C102.01 13.5222 101.813 13.3276 101.58 13.17C101.338 13.0217 101.051 12.9383 100.701 12.9383C100.342 12.9383 100.047 13.0125 99.8134 13.17C99.5714 13.3183 99.3831 13.5222 99.2307 13.7632C99.0872 14.0042 98.9796 14.2823 98.9169 14.6067C98.8541 14.9311 98.8272 15.2462 98.8272 15.5706C98.8272 15.9042 98.8631 16.2286 98.9258 16.5345C98.9886 16.8404 99.0962 17.1184 99.2486 17.3501C99.392 17.5818 99.5893 17.7765 99.8313 17.9248C100.073 18.0823 100.369 18.1565 100.719 18.1565Z" fill="black"/>
<path d="M108.005 19.8253C107.628 19.8253 107.279 19.7789 106.956 19.6863C106.633 19.5936 106.346 19.4453 106.104 19.2414C105.862 19.0375 105.674 18.7872 105.53 18.4814C105.396 18.1755 105.324 17.814 105.324 17.397C105.324 16.9335 105.405 16.5535 105.557 16.2569C105.719 15.9603 105.916 15.7194 106.167 15.5433C106.418 15.3672 106.696 15.2281 107.019 15.1447C107.341 15.052 107.664 14.9872 107.987 14.9315C108.31 14.8759 108.632 14.8389 108.946 14.8018C109.26 14.774 109.538 14.7276 109.78 14.6628C110.022 14.5979 110.219 14.5052 110.363 14.3847C110.506 14.2642 110.569 14.0881 110.56 13.8564C110.56 13.6247 110.524 13.4393 110.443 13.291C110.363 13.1427 110.264 13.0315 110.139 12.9481C110.013 12.874 109.861 12.8183 109.699 12.7905C109.529 12.7627 109.35 12.7535 109.161 12.7535C108.731 12.7535 108.399 12.8461 108.157 13.0408C107.915 13.2262 107.772 13.5413 107.727 13.9862H105.566C105.593 13.4764 105.728 13.0408 105.943 12.6886C106.167 12.3364 106.454 12.0583 106.795 11.8452C107.144 11.632 107.53 11.4837 107.951 11.4003C108.381 11.3076 108.812 11.2705 109.26 11.2705C109.655 11.2705 110.058 11.2983 110.461 11.3539C110.865 11.4095 111.241 11.5208 111.573 11.6969C111.905 11.8637 112.183 12.1047 112.398 12.4013C112.613 12.7071 112.721 13.0964 112.721 13.5784V17.814C112.721 18.1848 112.739 18.537 112.783 18.8706C112.828 19.2043 112.891 19.4546 112.999 19.6307H110.802C110.757 19.5009 110.73 19.3804 110.703 19.2414C110.677 19.1116 110.659 18.9726 110.65 18.8428C110.3 19.2136 109.897 19.4638 109.43 19.6121C108.964 19.7511 108.489 19.8253 108.005 19.8253ZM108.812 18.3423C109.242 18.3423 109.565 18.2682 109.798 18.1199C110.031 17.9716 110.201 17.7955 110.318 17.5916C110.426 17.3877 110.497 17.1838 110.524 16.9706C110.551 16.7574 110.56 16.5906 110.56 16.4701V15.636C110.47 15.7194 110.354 15.7842 110.228 15.8306C110.094 15.8769 109.95 15.914 109.789 15.9511C109.628 15.9789 109.457 16.0067 109.287 16.0252C109.117 16.0438 108.937 16.0716 108.767 16.1086C108.597 16.1364 108.435 16.1828 108.283 16.2384C108.13 16.294 107.996 16.3589 107.879 16.4516C107.763 16.5443 107.664 16.6555 107.601 16.7945C107.53 16.9335 107.494 17.1004 107.494 17.3135C107.494 17.5267 107.53 17.6935 107.601 17.8233C107.673 17.9531 107.772 18.055 107.888 18.1384C108.014 18.2126 108.157 18.2682 108.319 18.3053C108.471 18.3331 108.632 18.3423 108.812 18.3423Z" fill="black"/>
<path d="M1.73929 13.8285C1.73929 7.19232 6.95716 1.79808 13.3764 1.79808C19.7956 1.79808 25.0135 7.19232 25.0135 13.8285C25.0135 15.6637 24.61 17.4154 23.8928 18.9725L25.408 19.8623C26.2686 18.0364 26.7528 15.9881 26.7528 13.8285C26.7438 6.2006 20.746 0 13.3764 0C6.00682 0 0 6.2006 0 13.8285C0 14.8573 0.11655 15.8676 0.322755 16.8315L1.94549 16.0808C1.81101 15.3486 1.73929 14.5978 1.73929 13.8285Z" fill="#66B463"/>
<path d="M19.0152 14.2365C18.9256 14.2272 18.7104 14.1994 18.4683 14.1346C18.2531 14.079 18.1007 14.0141 17.9573 13.9492C17.4104 13.7268 17.1414 13.6155 17.007 13.5785C17.007 13.5785 16.5497 13.4487 15.8504 13.5877C14.9987 13.7638 13.9139 14.8946 13.2773 16.6556C13.4746 16.4053 13.6539 16.22 13.7794 16.0995C14.7208 15.2097 15.7877 14.9595 16.1463 14.9502C16.2897 14.9502 16.5766 14.9224 16.5766 14.9409C16.5766 14.9502 16.3704 14.9687 16.1552 15.0151C15.6352 15.117 15.2408 15.3395 14.9539 15.5063C14.8015 15.5897 14.6311 15.6917 14.4249 15.8585C14.2456 15.9975 14.1201 16.1273 14.0035 16.2478C13.8332 16.4146 13.7077 16.5722 13.6091 16.6927C13.7166 16.6556 13.896 16.6 14.1111 16.5536C15.7966 16.1829 16.7918 16.9522 17.7152 16.841C18.4594 16.7483 19.4276 16.1458 20.4138 13.9029C20.2166 13.9955 19.6069 14.3014 19.0152 14.2365Z" fill="#66B463"/>
<path fill-rule="evenodd" clip-rule="evenodd" d="M10.658 12.2713C10.5325 11.8913 10.4069 11.3259 10.5325 10.6864C10.6311 10.1488 10.9 9.60198 12.3076 8.29513C13.8766 6.83998 15.1317 6.05216 15.7234 4.94922C15.7683 4.8658 16.2524 3.96676 16.1896 3.92969C16.1807 3.92969 16.1717 3.92969 16.1717 3.92969C16.351 4.39311 16.6558 5.218 17.0413 6.26534C17.382 7.19218 17.5524 7.66487 17.6779 8.34147C17.8034 9.02734 17.8931 9.47222 17.7586 10.0191C17.5703 10.8069 17.0862 11.3074 16.6648 11.7337C15.6696 12.7255 15.0779 12.6884 14.1545 13.5874C13.6166 14.1065 13.3117 14.6626 13.1504 15.0055C13.0248 14.403 12.9173 13.4947 13.1145 12.4289C13.1593 12.1879 13.3207 11.3723 13.7241 10.6215C13.9303 10.2415 14.1993 9.88004 14.2172 9.85223C14.3697 9.64832 14.5041 9.49076 14.6028 9.37027C14.2083 9.6854 13.5986 10.26 13.1504 11.1776C12.7738 11.9562 12.6931 12.6328 12.6124 13.4113C12.5317 14.1435 12.4869 15.2465 12.729 16.5997C12.0297 15.1538 11.3483 13.7172 10.658 12.2713Z" fill="#66B463"/>
<path d="M18.5864 23.2271C17.6092 23.1344 16.1568 22.7359 14.4085 22.2447C14.0499 22.1427 13.7182 22.05 13.3237 21.9017C12.6244 21.6515 12.0686 21.3827 11.5217 21.1232C11.2168 20.9842 10.93 20.8359 10.6162 20.7061C9.881 20.4373 9.12791 20.1871 8.34792 20.0017C7.96241 19.909 7.5231 19.8349 7.03 19.77C5.21899 19.5846 3.17488 19.8163 1.08594 20.3632C1.36387 21.0027 1.78524 21.7349 2.3142 22.4578C2.69971 22.9861 3.06729 23.431 3.41694 23.8388C5.12934 23.051 6.48311 23.1344 7.16448 23.1993C8.35688 23.3105 9.38791 23.7369 10.0513 24.0149C10.8313 24.3393 10.9479 24.4784 12.0148 24.9418C12.1313 24.9881 13.2968 25.4979 14.2023 25.7389C15.7533 26.1467 17.6181 25.8223 17.8423 25.7852C19.3574 25.5072 20.4064 24.9232 20.6305 24.7935C22.4146 23.7832 23.4367 22.3466 23.9388 21.5032C21.3388 23.3105 19.4202 23.3105 18.5864 23.2271Z" fill="#66B463"/>
<path d="M9.96352 18.9357C10.4925 19.1118 10.9407 19.2972 11.3532 19.4826C11.6759 19.6123 12.0076 19.7513 12.3125 19.9182C12.3483 19.9367 12.4021 19.9645 12.4649 20.0016C13.1193 20.3074 13.7917 20.5948 14.751 20.8543C16.4096 21.2992 18.14 21.4382 19.942 21.2806C18.5613 20.187 16.3379 18.7318 13.2987 17.9255C8.11665 16.5537 3.81325 17.9533 2.13672 18.6021C2.88981 18.4352 3.92083 18.2777 5.1491 18.2777C6.85252 18.2313 8.4663 18.4445 9.96352 18.9357Z" fill="#66B463"/>
<path d="M9.04582 13.8568C9.38651 14.0051 10.041 14.348 10.561 14.9598C10.6775 15.0988 10.8927 15.3583 11.072 15.7568C11.1348 15.9051 11.1886 16.0442 11.2244 16.1647C11.3858 15.8403 11.6279 15.2193 11.4486 14.5334C11.3589 14.1812 11.1796 13.9032 11.1079 13.8012C10.812 13.3656 10.4624 13.1246 10.2651 13.0041C8.88445 12.1236 7.5217 11.9475 6.69689 11.2338C6.62516 11.1782 6.05138 10.6777 6.05138 10.6777C5.71069 12.8558 6.23069 13.7827 6.66999 14.2276C7.03757 14.589 7.40515 14.6724 8.33756 15.0432C9.53892 15.5251 10.4803 15.9978 11.1168 16.35C10.9375 15.8866 10.6148 15.2007 9.98719 14.5705C9.65547 14.2554 9.32375 14.0144 9.04582 13.8568Z" fill="#66B463"/>
<path fill-rule="evenodd" clip-rule="evenodd" d="M9.10765 24.8397C8.498 24.608 7.75387 24.3299 6.74975 24.2743C5.66493 24.2187 4.78632 24.4411 4.23047 24.6265C7.42215 27.4997 11.5283 28.6583 15.6793 27.611C13.9131 27.5553 12.6759 26.7212 11.86 26.2948C10.9366 25.8314 10.4614 25.3495 9.10765 24.8397Z" fill="#66B463"/>
</g>
<defs>
<clipPath id="clip0_206_1640">
<rect width="113" height="28" fill="white"/>
</clipPath>
</defs>
</svg>
